<svg version="1.1" preserveAspectRatio="none" xmlns="http://www.w3.org/2000/svg" width="500" height="500" viewBox="0 0 500 500"><rect width="100%" height="100%" fill="#FFFFFF" fill-opacity="1"/><svg viewBox="201.4485 308.0137 348.134 101.8664" width="333" height="97.43808763292294" x="83.5px" y="201.281px" xmlns="http://www.w3.org/2000/svg" xmlns:xlink="http://www.w3.org/1999/xlink" preserveAspectRatio="none"><defs></defs><style>.aLgOaV3zRcolors-3 {fill:#2D2C2A;fill-opacity:1;}.aLgOaV3zRcolors-4 {fill:#AA9159;fill-opacity:1;}.aLgOaV3zRcolors-5 {fill:#E17F4A;fill-opacity:1;}.aLgOaV3zRcolors-6 {fill:#FDE6E6;fill-opacity:1;}.aLgOaV3zRcolors-7 {fill:#FDAEAE;fill-opacity:1;}.companyName {fill:#CAB776;fill-opacity:1;}.icon1 {fill:#CAB776;fill-opacity:1;}.icon2 {fill:#F1CABB;fill-opacity:1;}.icon3 {fill:#907F46;fill-opacity:1;}.icon3-str {stroke:#907F46;stroke-opacity:1;}.shapeStroke-str {stroke:#F1CABB;stroke-opacity:1;}</style><g opacity="1" transform="rotate(0 360.5155 308.0137)">
<svg width="30" height="23.7328" x="360.5155" y="308.0137" version="1.1" preserveAspectRatio="none" viewBox="25.9679012298584 30.976905822753903 48.06419372558594 38.023284912109375">
  <g transform="matrix(1 0 0 1 0 0)" class="icon1"><title>Artboard 265</title><path d="M32,69H68a2,2,0,0,0,2-1.67l4-24a2,2,0,0,0-3-2.07L58.93,48.17l-7.1-16a2,2,0,0,0-3.66,0l-7.1,16L29,41.26a2,2,0,0,0-3,2.07l4,24A2,2,0,0,0,32,69Zm9-16.26a2,2,0,0,0,1.61.16,2,2,0,0,0,1.21-1.09L50,37.92l6.17,13.89a2,2,0,0,0,1.21,1.09A2,2,0,0,0,59,52.74l10.34-5.91L66.31,65H33.69l-3-18.17Z"></path></g>
</svg>
</g><g opacity="1" transform="rotate(0 201.4485 323.8801)">
<svg width="144.067" height="2" x="201.4485" y="323.8801" version="1.1" preserveAspectRatio="none" viewBox="0 0 144.067 2">
  <defs><rect x="0" y="0" width="144.067" height="2" rx="0px" ry="0px" id="id-sr1BtIxl1766416644135"></rect></defs><use class="icon1 shapeStroke-str" style="stroke-width:0;" xlink:href="#id-sr1BtIxl1766416644135"></use>
</svg>
</g><g opacity="1" transform="rotate(0 405.5155 323.8801)">
<svg width="144.067" height="2" x="405.5155" y="323.8801" version="1.1" preserveAspectRatio="none" viewBox="0 0 144.067 2">
  <defs><rect x="0" y="0" width="144.067" height="2" rx="0px" ry="0px" id="id-R9TavoXY1766416644135"></rect></defs><use class="icon1 shapeStroke-str" style="stroke-width:0;" xlink:href="#id-R9TavoXY1766416644135"></use>
</svg>
</g><g opacity="1" transform="rotate(0 201.4485 349.8801)">
<svg width="348.134" height="60" x="201.4485" y="349.8801" version="1.1" preserveAspectRatio="none" viewBox="2.4 -28.56 168.95999999999998 29.12">
  <g transform="matrix(1 0 0 1 0 0)" class="companyName"><path id="id-D6z1nYkh6" d="M16.76 0.56Q10.36 0.52 6.38-3.48Q2.40-7.48 2.40-14Q2.40-20.52 6.38-24.54Q10.36-28.56 16.76-28.56L16.76-28.56Q22.28-28.56 26.48-25.84L26.48-25.84L27.28-20.20L26.92-20.20Q26.04-23.64 23.38-25.50Q20.72-27.36 16.76-27.36L16.76-27.36Q11.68-27.36 8.54-23.68Q5.40-20 5.40-14Q5.40-8 8.54-4.34Q11.68-0.68 16.76-0.64L16.76-0.64Q19.36-0.64 21.70-1.56Q24.04-2.48 25.80-4.12L25.80-4.12L25.80-11.20Q25.80-12.08 25.26-12.54Q24.72-13 23.76-13L23.76-13L23.12-13L23.12-13.40L30.96-13.40L30.96-13L30.36-13Q29.36-13 28.84-12.54Q28.32-12.08 28.36-11.20L28.36-11.20L28.36-4.60Q27.32-3.24 25.88-2.16Q24.44-1.08 22.02-0.26Q19.60 0.56 16.76 0.56L16.76 0.56Z M35.72-0.40L36.28-0.40Q37.24-0.40 37.90-1.02Q38.56-1.64 38.60-2.52L38.60-2.52L38.60-21.44Q38.56-22.32 37.86-22.96Q37.16-23.60 36.20-23.60L36.20-23.60L35.72-23.60L35.72-24L44-24L44-23.60L43.52-23.60Q42.56-23.60 41.86-22.96Q41.16-22.32 41.16-21.44L41.16-21.44L41.16-1.24L47.40-1.24Q49.24-1.24 50.52-1.88Q51.80-2.52 52.46-3.40Q53.12-4.28 53.76-5.72L53.76-5.72L54.16-5.72L51.96 0L35.72 0L35.72-0.40Z M58.20-0.40L58.76-0.40Q59.84-0.40 60.64-1.04Q61.44-1.68 61.44-2.56L61.44-2.56L61.44-21.44Q61.44-22.32 60.64-22.96Q59.84-23.60 58.72-23.60L58.72-23.60L58.20-23.60L58.20-24L67.24-24L67.24-23.60L66.72-23.60Q65.64-23.60 64.86-23Q64.08-22.40 64-21.52L64-21.52L64-2.52Q64.04-1.64 64.84-1.02Q65.64-0.40 66.72-0.40L66.72-0.40L67.24-0.40L67.28 0L58.20 0L58.20-0.40Z M105.68-0.40L105.68-0.40L106.28-0.40L106.28 0L97.96 0L97.96-0.36L98.56-0.36Q99.16-0.36 99.62-0.82Q100.08-1.28 100.00-1.92L100.00-1.92L97.92-18.40L90.36-3.52Q89.24-1.08 88.96 0.56L88.96 0.56L88.56 0.56L78.92-18.04L77.12-1.92Q77.04-1.32 77.50-0.84Q77.96-0.36 78.60-0.36L78.60-0.36L79.16-0.36L79.16 0L71.76 0L71.76-0.40L72.36-0.40Q73.80-0.40 74.60-1.44L74.60-1.44Q75.00-1.96 75.08-2.68L75.08-2.68L78.20-24.56L78.60-24.56L89.16-4.24L99.36-24.56L99.72-24.56L102.96-2.60Q103.12-1.60 103.88-1Q104.64-0.40 105.68-0.40Z M142.80-0.40L142.80-0.40L143.40-0.40L143.40 0L135.08 0L135.08-0.36L135.68-0.36Q136.28-0.36 136.74-0.82Q137.20-1.28 137.12-1.92L137.12-1.92L135.04-18.40L127.48-3.52Q126.36-1.08 126.08 0.56L126.08 0.56L125.68 0.56L116.04-18.04L114.24-1.92Q114.16-1.32 114.62-0.84Q115.08-0.36 115.72-0.36L115.72-0.36L116.28-0.36L116.28 0L108.88 0L108.88-0.40L109.48-0.40Q110.92-0.40 111.72-1.44L111.72-1.44Q112.12-1.96 112.20-2.68L112.20-2.68L115.32-24.56L115.72-24.56L126.28-4.24L136.48-24.56L136.84-24.56L140.08-2.60Q140.24-1.60 141-1Q141.76-0.40 142.80-0.40Z M155.36-22.76L155.36-22.76L153.24-22.76L153.24-2.56Q153.28-1.32 154.36-0.68L154.36-0.68Q154.88-0.40 155.52-0.40L155.52-0.40L156.04-0.40L156.08 0L147.88 0L147.88-0.40L148.44-0.40Q149.36-0.40 150.02-1.02Q150.68-1.64 150.68-2.52L150.68-2.52L150.68-21.52Q150.68-22.40 150.02-23Q149.36-23.60 148.44-23.60L148.44-23.60L147.88-23.60L147.88-24L157.92-24Q161.68-24 163.86-22.28Q166.04-20.56 166.04-17.76Q166.04-14.96 164.28-13.08Q162.52-11.20 159.80-10.92L159.80-10.92Q161.08-10.36 162.88-7.80L162.88-7.80Q162.84-7.80 164.26-6.04Q165.68-4.28 166.54-3.30Q167.40-2.32 167.96-1.80L167.96-1.80Q169.44-0.40 171.36-0.40L171.36-0.40L171.36 0L170.12 0Q166.96 0 165.16-1.24L165.16-1.24Q163.80-2.16 162.68-3.52L162.68-3.52Q162.44-3.84 160.66-6.34Q158.88-8.84 158.76-9L158.76-9Q156.60-11.68 154.72-11.68L154.72-11.68L154.72-12.08Q159.40-12.08 160.36-12.56L160.36-12.56Q161.68-13.24 162.16-14L162.16-14Q163.16-15.60 163.16-17.52L163.16-17.52Q163.16-19.96 161.72-21.28Q160.28-22.60 157.84-22.72L157.84-22.72Q156.76-22.76 155.36-22.76Z"/></g>
</svg>
</g></svg></svg>