<svg version="1.1" preserveAspectRatio="none" xmlns="http://www.w3.org/2000/svg" width="500" height="500" viewBox="0 0 500 500"><rect width="100%" height="100%" fill="#FFFFFF" fill-opacity="1"/><svg viewBox="962.8319 686.3833 392.8495 100" width="333" height="84.7652854337348" x="83.5px" y="207.6174px" xmlns="http://www.w3.org/2000/svg" xmlns:xlink="http://www.w3.org/1999/xlink" preserveAspectRatio="none"><defs></defs><style>.companyName {fill:#CAB776;fill-opacity:1;}.icon3-str {stroke:#907F46;stroke-opacity:1;}</style><g opacity="1" transform="rotate(0 962.8319 686.3833)">
<svg width="392.8495" height="100" x="962.8319" y="686.3833" version="1.1" preserveAspectRatio="none" viewBox="2 -31.56 125.24000000000001 31.879999999999995">
  <g transform="matrix(1 0 0 1 0 0)" class="companyName"><path id="id-D6z1nYkh6" d="M27.68-2.96Q27-2.24 25.26-1.46Q23.52-0.68 21.42-0.18Q19.32 0.32 17.60 0.32L17.60 0.32Q12.92 0.32 9.38-1.50Q5.84-3.32 3.92-6.54Q2-9.76 2-13.88L2-13.88Q2-19.04 4.04-22.62Q6.08-26.20 9.52-27.98Q12.96-29.76 17.12-29.76L17.12-29.76Q19.80-29.76 22.16-29.16Q24.52-28.56 26.32-27.60L26.32-27.60L24.44-22.20Q23.28-22.84 21.26-23.38Q19.24-23.92 17.88-23.92L17.88-23.92Q13.08-23.92 10.54-21.52Q8-19.12 8-14.40L8-14.40Q8-11.68 9.24-9.66Q10.48-7.64 12.70-6.56Q14.92-5.48 17.76-5.48L17.76-5.48Q20.48-5.48 21.80-6.24L21.80-6.24L21.80-9.80L16.72-9.80L16.72-15.40L27.68-15.40L27.68-2.96Z M31.36-31.56L36.96-31.56L36.96 0L31.36 0L31.36-31.56Z M40.72-17.48L46.32-17.48L46.32 0L40.72 0L40.72-17.48ZM40.60-23.68Q40.60-24.88 41.54-25.70Q42.48-26.52 43.68-26.52L43.68-26.52Q44.84-26.52 45.76-25.70Q46.68-24.88 46.68-23.68L46.68-23.68Q46.68-22.48 45.76-21.68Q44.84-20.88 43.68-20.88L43.68-20.88Q42.48-20.88 41.54-21.68Q40.60-22.48 40.60-23.68L40.60-23.68Z M73.12-18.36Q75.68-18.36 77.22-16.92Q78.76-15.48 78.84-13.12L78.84-13.12L78.84 0L73.28 0L73.28-10.80Q73.20-12.12 72.84-12.78Q72.48-13.44 71.44-13.52L71.44-13.52Q69.48-13.52 68.38-11.62Q67.28-9.72 67.28-7.16L67.28-7.16L67.28 0L61.68 0L61.68-10.80Q61.60-12.12 61.20-12.78Q60.80-13.44 59.72-13.52L59.72-13.52Q57.84-13.52 56.76-11.62Q55.68-9.72 55.68-7.24L55.68-7.24L55.68 0L50.08 0L50.08-17.48L55.16-17.48L55.56-14.72Q57.68-18.36 61.88-18.36L61.88-18.36Q64-18.36 65.38-17.50Q66.76-16.64 67.28-14.96L67.28-14.96Q68.40-16.52 69.94-17.44Q71.48-18.36 73.12-18.36L73.12-18.36Z M105.64-18.36Q108.20-18.36 109.74-16.92Q111.28-15.48 111.36-13.12L111.36-13.12L111.36 0L105.80 0L105.80-10.80Q105.72-12.12 105.36-12.78Q105-13.44 103.96-13.52L103.96-13.52Q102-13.52 100.90-11.62Q99.80-9.72 99.80-7.16L99.80-7.16L99.80 0L94.20 0L94.20-10.80Q94.12-12.12 93.72-12.78Q93.32-13.44 92.24-13.52L92.24-13.52Q90.36-13.52 89.28-11.62Q88.20-9.72 88.20-7.24L88.20-7.24L88.20 0L82.60 0L82.60-17.48L87.68-17.48L88.08-14.72Q90.20-18.36 94.40-18.36L94.40-18.36Q96.52-18.36 97.90-17.50Q99.28-16.64 99.80-14.96L99.80-14.96Q100.92-16.52 102.46-17.44Q104-18.36 105.64-18.36L105.64-18.36Z M120.60-13.48Q121.32-14.88 122.58-16Q123.84-17.12 125.16-17.74Q126.48-18.36 127.24-18.36L127.24-18.36L126.96-12.76Q126.72-12.80 126.28-12.80L126.28-12.80Q124.60-12.80 123.32-11.92Q122.04-11.04 121.36-9.66Q120.68-8.28 120.68-6.84L120.68-6.84L120.68 0L115.12 0L115.12-17.48L120.16-17.48L120.60-13.48Z"/></g>
</svg>
</g></svg></svg>